# xmcd
#
# Track frame offsets:
#	150
#	18258
#	36540
#	52914
#	69982
#	85497
#	102273
#	117430
#	134215
#	148933
#	165423
#	180617
#	196302
#	211874
#	227593
#	247829
#	267725
#	284511
#	297472
#	317342
#
# Disc length: 4442 seconds
#
# Revision: 1
# Processed by: cddbd v1.5.1PL0 Copyright (c) Steve Scherf et al.
# Submitted via: audiograbber 1.83.01
#
DISCID=30115814
DTITLE=Diverse Interpreten - Fox Box Vol 6
DYEAR=2005
DGENRE=Deutsch Fox
TTITLE0=Michael Morgen - Komm geh mit mir nach Kanada (Remix)
TTITLE1=Oliver Frank - Cara Mia (Remix)
TTITLE2=Jeannine - Lass mich alleine (mit dir sein)
TTITLE3=Tommy Fischer - Ich vermisse dich (Club Mix)
TTITLE4=Olaf Henning - Was ist los mit dir
TTITLE5=Michael Larsen - Meinetwegen (Disco Edit)
TTITLE6=G. G. Anderson - Ich seh in deine Augen (Version 2004)
TTITLE7=Denise - Sumbaheya
TTITLE8=Tommy Steiner - Ich denk an dich
TTITLE9=Playa Rouge - Land des Lächelns
TTITLE10=Klaus Densow - Ich wünsch mir eine Nacht mit dir (Remix)
TTITLE11=Jörg Bausch - Ich hab Lust am Leben
TTITLE12=Thorsten Sander - Goodbye my love, goodbye
TTITLE13=Peter Markus - Nur mein Herz entscheidet sich
TTITLE14=Dennis Harder - Jetzt oder nie (Maxi Version)
TTITLE15=Leonie Berger - Baby komm lass uns schweben
TTITLE16=Fantasy - Geh mit ihm (DJ-Dance-Mix)
TTITLE17=Chris Alexandros - Ich will mehr von dir
TTITLE18=Denny Fabian - Viel zu hoch (Maxi-Version)
TTITLE19=Mosaique - Comment ca va
EXTD=
EXTT0=
EXTT1=
EXTT2=
EXTT3=
EXTT4=
EXTT5=
EXTT6=
EXTT7=
EXTT8=
EXTT9=
EXTT10=
EXTT11=
EXTT12=
EXTT13=
EXTT14=
EXTT15=
EXTT16=
EXTT17=
EXTT18=
EXTT19=
PLAYORDER=
